<mxfile host="app.diagrams.net" modified="2023-10-18T17:21:48.600Z" agent="Mozilla/5.0 (Windows NT 10.0; Win64; x64) AppleWebKit/537.36 (KHTML, like Gecko) Chrome/118.0.0.0 Safari/537.36" etag="0uMaJi2rwvfHSKqi_VOu" version="22.0.4" type="github">
  <diagram name="第 1 页" id="ECU1dcljr8OWgzyjqa00">
    <mxGraphModel dx="1290" dy="534" grid="1" gridSize="10" guides="1" tooltips="1" connect="1" arrows="1" fold="1" page="1" pageScale="1" pageWidth="827" pageHeight="1169" math="0" shadow="0">
      <root>
        <mxCell id="0" />
        <mxCell id="1" parent="0" />
        <mxCell id="Grxb-lrWiW7wxGSLLTz9-1" value="User" style="shape=umlActor;verticalLabelPosition=bottom;verticalAlign=top;html=1;outlineConnect=0;" vertex="1" parent="1">
          <mxGeometry x="110" y="240" width="30" height="60" as="geometry" />
        </mxCell>
        <mxCell id="Grxb-lrWiW7wxGSLLTz9-2" value="傳送語音" style="ellipse;whiteSpace=wrap;html=1;" vertex="1" parent="1">
          <mxGeometry x="250" y="290" width="100" height="40" as="geometry" />
        </mxCell>
        <mxCell id="Grxb-lrWiW7wxGSLLTz9-3" value="上傳檔案" style="ellipse;whiteSpace=wrap;html=1;" vertex="1" parent="1">
          <mxGeometry x="250" y="360" width="100" height="40" as="geometry" />
        </mxCell>
        <mxCell id="Grxb-lrWiW7wxGSLLTz9-4" value="傳送文字" style="ellipse;whiteSpace=wrap;html=1;" vertex="1" parent="1">
          <mxGeometry x="250" y="210" width="100" height="40" as="geometry" />
        </mxCell>
        <mxCell id="Grxb-lrWiW7wxGSLLTz9-5" value="傳送程式碼" style="ellipse;whiteSpace=wrap;html=1;" vertex="1" parent="1">
          <mxGeometry x="386" y="120" width="120" height="40" as="geometry" />
        </mxCell>
        <mxCell id="Grxb-lrWiW7wxGSLLTz9-6" value="傳送CS50/CS問題" style="ellipse;whiteSpace=wrap;html=1;" vertex="1" parent="1">
          <mxGeometry x="386" y="180" width="120" height="40" as="geometry" />
        </mxCell>
        <mxCell id="Grxb-lrWiW7wxGSLLTz9-7" value="登入" style="ellipse;whiteSpace=wrap;html=1;" vertex="1" parent="1">
          <mxGeometry x="250" y="140" width="100" height="40" as="geometry" />
        </mxCell>
        <mxCell id="Grxb-lrWiW7wxGSLLTz9-8" value="登出" style="ellipse;whiteSpace=wrap;html=1;" vertex="1" parent="1">
          <mxGeometry x="250" y="80" width="100" height="40" as="geometry" />
        </mxCell>
        <mxCell id="Grxb-lrWiW7wxGSLLTz9-10" value="" style="endArrow=none;html=1;rounded=0;" edge="1" parent="1" source="Grxb-lrWiW7wxGSLLTz9-1" target="Grxb-lrWiW7wxGSLLTz9-4">
          <mxGeometry width="50" height="50" relative="1" as="geometry">
            <mxPoint x="470" y="300" as="sourcePoint" />
            <mxPoint x="520" y="250" as="targetPoint" />
          </mxGeometry>
        </mxCell>
        <mxCell id="Grxb-lrWiW7wxGSLLTz9-11" value="" style="endArrow=none;html=1;rounded=0;" edge="1" parent="1" source="Grxb-lrWiW7wxGSLLTz9-1" target="Grxb-lrWiW7wxGSLLTz9-2">
          <mxGeometry width="50" height="50" relative="1" as="geometry">
            <mxPoint x="470" y="300" as="sourcePoint" />
            <mxPoint x="520" y="250" as="targetPoint" />
          </mxGeometry>
        </mxCell>
        <mxCell id="Grxb-lrWiW7wxGSLLTz9-12" value="" style="endArrow=none;html=1;rounded=0;exitX=0.5;exitY=0.5;exitDx=0;exitDy=0;exitPerimeter=0;" edge="1" parent="1" source="Grxb-lrWiW7wxGSLLTz9-1" target="Grxb-lrWiW7wxGSLLTz9-3">
          <mxGeometry width="50" height="50" relative="1" as="geometry">
            <mxPoint x="150" y="273" as="sourcePoint" />
            <mxPoint x="260" y="225" as="targetPoint" />
          </mxGeometry>
        </mxCell>
        <mxCell id="Grxb-lrWiW7wxGSLLTz9-13" value="" style="endArrow=none;html=1;rounded=0;" edge="1" parent="1" source="Grxb-lrWiW7wxGSLLTz9-1" target="Grxb-lrWiW7wxGSLLTz9-7">
          <mxGeometry width="50" height="50" relative="1" as="geometry">
            <mxPoint x="135" y="280" as="sourcePoint" />
            <mxPoint x="244" y="280" as="targetPoint" />
          </mxGeometry>
        </mxCell>
        <mxCell id="Grxb-lrWiW7wxGSLLTz9-14" value="" style="endArrow=none;html=1;rounded=0;" edge="1" parent="1" source="Grxb-lrWiW7wxGSLLTz9-1" target="Grxb-lrWiW7wxGSLLTz9-8">
          <mxGeometry width="50" height="50" relative="1" as="geometry">
            <mxPoint x="150" y="286" as="sourcePoint" />
            <mxPoint x="258" y="326" as="targetPoint" />
          </mxGeometry>
        </mxCell>
        <mxCell id="Grxb-lrWiW7wxGSLLTz9-16" value="" style="endArrow=none;html=1;rounded=0;" edge="1" parent="1" source="Grxb-lrWiW7wxGSLLTz9-4" target="Grxb-lrWiW7wxGSLLTz9-5">
          <mxGeometry width="50" height="50" relative="1" as="geometry">
            <mxPoint x="176" y="412" as="sourcePoint" />
            <mxPoint x="298" y="512" as="targetPoint" />
          </mxGeometry>
        </mxCell>
        <mxCell id="Grxb-lrWiW7wxGSLLTz9-17" value="" style="endArrow=none;html=1;rounded=0;" edge="1" parent="1" source="Grxb-lrWiW7wxGSLLTz9-4" target="Grxb-lrWiW7wxGSLLTz9-6">
          <mxGeometry width="50" height="50" relative="1" as="geometry">
            <mxPoint x="355" y="231" as="sourcePoint" />
            <mxPoint x="409" y="220" as="targetPoint" />
          </mxGeometry>
        </mxCell>
        <mxCell id="Grxb-lrWiW7wxGSLLTz9-20" value="資料庫" style="shape=umlActor;verticalLabelPosition=bottom;verticalAlign=top;html=1;" vertex="1" parent="1">
          <mxGeometry x="120" y="360" width="30" height="60" as="geometry" />
        </mxCell>
        <mxCell id="Grxb-lrWiW7wxGSLLTz9-21" value="回答問題/給出建議" style="ellipse;whiteSpace=wrap;html=1;" vertex="1" parent="1">
          <mxGeometry x="430" y="460" width="140" height="40" as="geometry" />
        </mxCell>
        <mxCell id="Grxb-lrWiW7wxGSLLTz9-22" value="&amp;lt;&amp;lt;include&amp;gt;&amp;gt;" style="endArrow=open;endSize=12;dashed=1;html=1;rounded=0;" edge="1" parent="1" source="Grxb-lrWiW7wxGSLLTz9-4" target="Grxb-lrWiW7wxGSLLTz9-21">
          <mxGeometry width="160" relative="1" as="geometry">
            <mxPoint x="330" y="280" as="sourcePoint" />
            <mxPoint x="490" y="280" as="targetPoint" />
          </mxGeometry>
        </mxCell>
        <mxCell id="Grxb-lrWiW7wxGSLLTz9-23" value="&amp;lt;&amp;lt;include&amp;gt;&amp;gt;" style="endArrow=open;endSize=12;dashed=1;html=1;rounded=0;" edge="1" parent="1" source="Grxb-lrWiW7wxGSLLTz9-2" target="Grxb-lrWiW7wxGSLLTz9-21">
          <mxGeometry width="160" relative="1" as="geometry">
            <mxPoint x="330" y="184" as="sourcePoint" />
            <mxPoint x="529" y="264" as="targetPoint" />
          </mxGeometry>
        </mxCell>
        <mxCell id="Grxb-lrWiW7wxGSLLTz9-24" value="&amp;lt;&amp;lt;include&amp;gt;&amp;gt;" style="endArrow=open;endSize=12;dashed=1;html=1;rounded=0;" edge="1" parent="1" source="Grxb-lrWiW7wxGSLLTz9-3" target="Grxb-lrWiW7wxGSLLTz9-21">
          <mxGeometry width="160" relative="1" as="geometry">
            <mxPoint x="342" y="255" as="sourcePoint" />
            <mxPoint x="505" y="273" as="targetPoint" />
          </mxGeometry>
        </mxCell>
        <mxCell id="Grxb-lrWiW7wxGSLLTz9-25" value="" style="endArrow=none;html=1;rounded=0;" edge="1" parent="1" source="Grxb-lrWiW7wxGSLLTz9-21" target="Grxb-lrWiW7wxGSLLTz9-20">
          <mxGeometry width="50" height="50" relative="1" as="geometry">
            <mxPoint x="150" y="270" as="sourcePoint" />
            <mxPoint x="269" y="187" as="targetPoint" />
          </mxGeometry>
        </mxCell>
        <mxCell id="Grxb-lrWiW7wxGSLLTz9-27" value="" style="endArrow=none;html=1;rounded=0;" edge="1" parent="1" source="Grxb-lrWiW7wxGSLLTz9-4" target="Grxb-lrWiW7wxGSLLTz9-20">
          <mxGeometry width="50" height="50" relative="1" as="geometry">
            <mxPoint x="563" y="259" as="sourcePoint" />
            <mxPoint x="690" y="278" as="targetPoint" />
          </mxGeometry>
        </mxCell>
        <mxCell id="Grxb-lrWiW7wxGSLLTz9-28" value="" style="endArrow=none;html=1;rounded=0;" edge="1" parent="1" source="Grxb-lrWiW7wxGSLLTz9-2" target="Grxb-lrWiW7wxGSLLTz9-20">
          <mxGeometry width="50" height="50" relative="1" as="geometry">
            <mxPoint x="336" y="181" as="sourcePoint" />
            <mxPoint x="690" y="276" as="targetPoint" />
          </mxGeometry>
        </mxCell>
        <mxCell id="Grxb-lrWiW7wxGSLLTz9-29" value="" style="endArrow=none;html=1;rounded=0;" edge="1" parent="1" source="Grxb-lrWiW7wxGSLLTz9-3" target="Grxb-lrWiW7wxGSLLTz9-20">
          <mxGeometry width="50" height="50" relative="1" as="geometry">
            <mxPoint x="343" y="254" as="sourcePoint" />
            <mxPoint x="700" y="286" as="targetPoint" />
          </mxGeometry>
        </mxCell>
      </root>
    </mxGraphModel>
  </diagram>
</mxfile>
